<?xml version="1.0" encoding="utf-8"?>
<!-- Generator: Adobe Illustrator 21.1.0, SVG Export Plug-In . SVG Version: 6.00 Build 0)  -->
<svg version="1.1" id="Layer_3" xmlns="http://www.w3.org/2000/svg" xmlns:xlink="http://www.w3.org/1999/xlink" x="0px" y="0px"
	 viewBox="0 0 1440 580" style="enable-background:new 0 0 1440 580;" xml:space="preserve">
<style type="text/css">
	.st0{fill:#91B7DC;}
	.st1{fill:#8AADCE;}
	.st2{fill:#A2C3E2;}
	.st3{fill:#9BBCDC;}
	.st4{fill:#8EACBE;}
	.st5{fill:#D6D6D6;}
	.st6{fill:#FFEE58;}
	.st7{fill:#FFFFFF;}
	.st8{fill:#C5C5C5;}
	.st9{fill:#C1C1C1;}
	.st10{fill:#6BCE8F;}
	.st11{fill:#7DC69B;}
	.st12{fill:#E1E1E1;}
	.st13{fill:#FF4A4A;}
</style>
<title>Plan de travail 1</title>
<polygon class="st0" points="303,305 351.3,326.2 289.5,363.5 184.5,363.5 184.5,359 226.8,335.2 "/>
<polygon class="st1" points="1124.2,306.5 1093,316.6 1046.3,321.8 1071,342 1115.5,346.2 1133.4,325.5 "/>
<polygon class="st0" points="1297.2,330.9 1242.3,364.7 1098.7,364.7 1071,342 1074,336.5 1091,342 1096.2,339 1100.7,332.7 
	1104.2,327.5 1123,325 1108.7,322.8 1113,315.8 1123.8,315.8 1124.2,306.5 1182.3,327.8 1204.4,341 "/>
<polygon class="st2" points="759.1,300.6 759.1,293.8 787.8,232.7 816,289.7 833.2,275 868.4,312.3 "/>
<polygon class="st2" points="578.2,205.3 625.5,289.3 598.5,282.5 595,288.8 582.8,256.7 578.8,279.5 570.3,267.2 560.2,314.5 
	545.5,303.7 538.3,313.3 530.3,303.3 513.3,317.4 532,278.2 548,292.8 552,266.8 "/>
<polygon class="st1" points="552,266.8 548,292.8 532,278.2 489.1,367.9 417,367.9 425,341.2 476.7,302.5 492.8,291.2 518,277.2 
	520.5,284.2 540.8,255.5 542.5,275.2 "/>
<polygon class="st0" points="625.5,289.3 633.5,306.5 668.1,332.7 663.2,370.4 486,370.4 513.3,317.4 530.3,303.3 538.3,313.3 
	545.5,303.7 560.2,314.5 570.3,267.2 578.8,279.5 582.8,256.7 595,288.8 598.5,282.5 "/>
<polygon class="st0" points="759.1,300.6 769,292.3 774.8,289.3 776.8,272.5 785,277 792.3,259.5 793.5,274.8 798.5,292.3 
	812.2,294.5 825,300.6 827.3,292.3 831.2,291 833,283.8 836,289.3 842.2,296.7 857.9,302.5 892,334.2 852.3,347.3 "/>
<polygon class="st1" points="119.9,365 303,305 273.2,323.1 264.8,327.8 265.5,341.2 226.8,335.2 217.2,347.8 184.5,363.5 "/>
<polygon class="st1" points="759.1,300.6 759.1,293.8 759.1,281.6 754.6,280.8 754.6,276.9 752.1,276.9 744.8,287.6 739.3,288 
	733.5,294.6 739.3,306 "/>
<polygon class="st3" points="1247.4,336.3 1204.4,341 1227.9,350.2 1224.1,343 "/>
<polygon class="st3" points="578.2,205.3 476.7,302.5 518,277.2 520.5,284.2 540.8,255.5 542.5,275.2 552,266.8 "/>
<polygon class="st3" points="787.8,232.7 739.3,288 744.8,287.6 752.1,276.9 754.6,276.9 754.6,280.8 759.1,281.6 759.1,293.8 "/>
<polyline class="st4" points="478.1,367.9 577.1,368.5 651.7,368.5 784.3,466.8 761.5,498 846.3,576.5 874.7,602.7 698,602.7 
	606.8,518.8 676.4,463.8 657.2,447.8 486.7,388.2 478.1,367.9 "/>
<polygon id="Grey_Scene_Right" class="st5" points="1242.3,364.7 1098.7,364.7 1006.7,289.3 959.3,316 930.7,310 882.7,336.7 
	861.3,315.3 827.3,322 773.3,296.7 739.3,306 717.3,261.3 636,352.7 586,364.7 577.1,368.5 596.5,373.1 594.6,382.8 624.6,385.1 
	635.1,391.2 630.9,397.4 646.9,397.4 664,406.6 664,410 679.5,411.6 671.4,418.4 708.2,447.6 768.6,459.5 752.1,481.6 706.6,485.9 
	692.5,509.5 692.1,520.9 751.1,542.8 813.8,559.5 828,567.8 832.9,585.6 867.5,601.4 1440,601.4 1440,500.5 1440,374.4 
	1304.6,326.4 "/>
<polygon id="Grey_Scene_Left" class="st5" points="703,601.4 737.5,573 720.2,560 678,547.5 634.5,523 656,506.5 671,474 699.5,465 
	693.5,456 656,433.5 647.5,419 595.5,396 535.5,351 488.5,383 456.5,336.5 443.5,343 396,299.3 347.3,352.3 289.5,363.5 
	184.5,363.5 119.9,365 54.7,312.9 0,353.8 0,367.9 0,601.4 "/>
<polygon class="st6" points="1190.7,535.3 740.9,539 754.3,543.6 1440,539.5 1440,535.3 "/>
<polyline class="st7" points="764.7,493.8 783,538.5 792.3,538.5 769.5,493.8 764.7,493.8 "/>
<polygon class="st8" points="347.3,352.3 396,299.3 289.5,363.5 223.3,385 252,403.7 260,407 268.7,410 305,412.7 366.3,385.7 
	352,381.3 350,371.7 339,375 341,364 "/>
<polygon class="st8" points="401.7,379.7 385.7,421 405.7,421 429.3,414.3 421.7,421 452.7,421 464,412.7 535.5,351 488.5,383 
	452.7,397.7 442,397.7 420.3,373.3 416.7,393 404,384 404,371.3 "/>
<polygon class="st8" points="717.3,261.3 636,352.7 586,364.7 577.1,368.5 596.5,373.1 594.6,382.8 624.6,385.1 652,356 "/>
<polygon class="st8" points="666.7,364 635.1,391.2 630.9,397.4 668.3,397.4 652.7,389.7 "/>
<polygon class="st8" points="764.7,345.3 679.5,411.6 671.4,418.4 708.2,447.6 718,449.5 "/>
<polygon class="st8" points="789,342.7 811,344 852.3,339.7 812.7,351 803.3,369 802.3,348 "/>
<polygon class="st8" points="773.3,296.7 739.3,306 742.7,314.7 749.7,310 770,310 761,303 "/>
<polygon class="st8" points="861.3,315.3 827.3,322 820.7,332.7 "/>
<polygon class="st8" points="876,339.7 930.7,310 911.7,332.7 874,369 887.7,348.3 "/>
<polygon class="st8" points="1006.7,289.3 1001.7,314.7 987,331 987,351.7 959.3,316 "/>
<polygon class="st8" points="838.3,422.7 792.3,459.7 820.7,467.7 "/>
<polygon class="st9" points="701.5,494.4 943.7,492.2 1338.5,488.6 1334.5,483.7 706.6,485.9 "/>
<polygon class="st9" points="1074.7,601.4 943.7,492.2 954,492.1 1095.7,601.4 "/>
<polygon class="st9" points="1153.9,526.7 998.3,526.3 994.8,523.5 1137,523.5 1083.7,490.9 1095.7,490.9 "/>
<polygon class="st9" points="1242.3,578 1065.4,578 1071.9,583 1242.3,583 "/>
<polygon class="st8" points="1124,409.7 1140,446.3 1157.7,448.3 1139.3,450.3 1065.4,445 1111.5,437 "/>
<polygon class="st8" points="1147,363.3 1125.7,376 1129.7,387.3 1108.7,371 "/>
<polygon class="st10" points="289.5,363.5 223.3,385 256.4,405.5 268.7,410 229.3,410 100.7,376.1 73.9,363.5 119.9,365 
	184.5,363.5 "/>
<polygon class="st10" points="342.3,416.3 268.7,410 184.5,410 244,425.7 "/>
<polygon class="st10" points="368.8,456.3 396,443 399.6,441.3 346,438.3 383,425.2 461,425.2 483,444 508,459.5 498.4,470.2 
	420,470 414,468.5 381.1,465.5 "/>
<polygon class="st10" points="678,547.5 663.7,550 636.7,542 596.3,551.3 540.7,558.7 562,577 438,601.4 703,601.4 737.5,573 
	720.2,560 "/>
<polygon class="st10" points="603,423 592.3,421 572.3,431.4 555.3,450.4 563,460 605.7,472.3 600.7,480 614,480 616.7,485.7 
	635.3,474.3 674,477.7 671.4,468.9 688,459.3 668.3,456.3 675.7,451.3 655.7,442.7 653.3,449.6 632.7,449.7 613.3,448.2 
	606.3,439.7 605.3,429 "/>
<polygon class="st10" points="735.7,323.2 688,397.4 668.3,397.4 688,402 675.7,406.3 685.3,407.1 734.3,369 "/>
<polygon class="st11" points="983,365.2 983,369 951.7,376.7 941.3,391.3 918.3,384 912.7,395 899,414.7 876,439.7 855.7,461.7 
	957.7,455 933,464.3 986.7,464.3 967,475.7 1038.7,477.3 1030.3,471 1130.7,465 1122.3,459.7 1139.3,450.3 1065.4,445 1000.7,365.2 
	1000,376.7 "/>
<polygon class="st11" points="1042.7,390.7 1042.7,382.3 1054.3,379 1061,365.2 1091,394.3 "/>
<polygon class="st11" points="1006.7,289.3 1013,332.7 1065.4,345.3 1057.7,349.3 1072.7,351.7 1088.3,356.2 "/>
<polygon class="st11" points="1098.7,364.7 1242.3,364.7 1259,377.2 1229,381.7 1211.3,373.2 1208.7,381.7 1225,389.7 1181.3,384.7 
	1164.7,375.3 1149,369 "/>
<polygon class="st11" points="1203.3,398.7 1259,425.7 1242.3,434.3 1149.8,451.9 1176.7,430 1185.3,434.7 1203.7,430 1212,421.3 
	"/>
<polygon class="st11" points="859,511.3 907,511.3 930.7,537 878,537 "/>
<polygon class="st12" points="396,299.3 393.3,302.3 394.6,325.7 402.7,321.7 400.7,336.5 405.7,338.7 394.7,354.3 427,351 431,356 
	439.7,358 439.7,362 448.7,359.3 454,360.3 454,365.3 444.3,371.3 461,371.3 460.6,380.3 472,380.3 488.5,383 456.5,336.5 
	443.5,343 "/>
<polygon class="st12" points="535.5,351 530,368 539.7,380.7 549.3,380.7 524.7,392.7 549.3,394 552.7,402.7 555,407.1 564.7,402.3 
	571.7,401.7 578.7,401.7 581.3,410 580,417.8 600.7,417.8 605.7,425.7 619,425.7 658.5,443.9 675.7,451.3 668.3,456.3 688,459.3 
	671.4,468.9 673,474.2 706.9,465.2 679.5,446.5 655.5,431.4 647.5,419 604.8,397.4 "/>
<polygon class="st12" points="717.3,261.3 715.8,272.8 716.5,278.8 712.8,284.1 709,288.5 715.5,289.2 719.4,291.2 720.6,295.4 
	718.2,299.8 725.2,305 725.2,310 715.8,320.2 731.6,314.7 735.7,323.2 742.7,314.7 730.5,288 "/>
<polygon class="st12" points="773.3,296.7 773.3,301.9 777.2,305.7 777.2,309.2 778.4,314 784.2,316 789,317.6 792.4,315.3 
	793.9,317.6 797.6,318.8 798.8,317.4 800.9,321.5 808,325.9 812.2,329.9 820.7,332.7 827.3,322 "/>
<polygon class="st12" points="876,339.7 872,339.7 863.8,356.5 857.9,366.5 857.9,372.9 859.1,382.4 871.6,401.1 874,369 
	887.5,347.2 "/>
<polygon class="st12" points="959.3,316 930.7,310 938.3,315 943.1,319.8 951.7,324.6 952.9,325.6 946.9,334.6 957.4,335.6 
	966.2,354.4 966.8,359 966.8,359.6 973.8,360.2 983,365.8 978.5,340.7 "/>
<polygon class="st12" points="1203.3,398.7 1164.7,375.3 1149,369 1139.3,369 1144.2,371.8 1144.2,377.2 1154.6,379.8 1160.8,379.8 
	1155.8,385 1160.2,387.3 1169,387.3 1172.2,394.3 1172.5,402.2 1179,407.2 1185.5,407.2 1193.5,407.2 1193,414.2 1203.3,418.5 
	1207.8,418.5 1202.5,425.5 1185.3,434.7 1203.7,430 1212,421.3 "/>
<polygon class="st6" points="907,511.3 691.5,511.3 517.7,508 275.3,501.3 159.9,488.4 173.1,482.9 277,492.7 520,501.3 
	657.2,505.8 694.3,506.5 902.3,508.3 "/>
<polygon class="st7" points="914.2,601.4 839.2,492.1 843.5,492.1 930.7,601.4 "/>
<polygon class="st7" points="820.5,507.6 809,493.4 804.5,493.4 812.5,507.6 "/>
<polygon class="st7" points="990.5,492.1 1045.5,537 1057.2,536.4 999,491.7 "/>
<polygon class="st7" points="1102.2,466.7 1271.8,601.4 1298,601.4 1111.5,466.1 "/>
<polygon class="st7" points="1116,465.9 1305.9,601.4 1323,601.4 1125.5,465.3 "/>
<polygon class="st7" points="606.8,480 527.8,535.8 390,535.8 402.5,530.8 524.7,532.2 600.7,480 "/>
<polygon class="st7" points="578.2,474.2 499.7,518.9 354.8,601.4 331,601.4 569.5,474.2 "/>
<polygon class="st7" points="541.6,520.6 499.7,518.9 505.1,515.8 547.1,516.8 "/>
<polygon class="st6" points="173.1,482.9 193.5,444.8 385.7,421 386.9,417.8 187.2,440.8 176,460.5 159.9,488.4 "/>
<polygon class="st9" points="537.8,474.2 228,601.4 203,601.4 531.5,474.2 "/>
<polygon class="st9" points="498.4,470.2 141.3,601.4 108,601.4 492,470.2 "/>
<polygon class="st9" points="332.9,558.3 540.7,558.7 547.1,564.2 321.1,563.2 "/>
<polygon class="st6" points="0,575 218.6,495 211.5,494.2 118.4,524.9 108,528.3 0,563.8 "/>
<polygon class="st6" points="994.8,600 979.6,584.8 875.2,480.5 818.1,477.3 764.7,458.4 800.1,453.4 792.3,459.7 787.2,461.3 
	823.7,473.2 879.7,476.4 1025.2,600 "/>
<polygon class="st6" points="836.8,587.4 979.6,584.8 967.4,572.7 829.9,574.6 832.9,585.6 "/>
<polygon class="st10" points="0,396.1 25.4,386.4 38.8,375.2 73.5,375.2 92.2,390.5 113.4,403.3 86.2,403.3 38.7,417.8 22.4,409.7 
	3.9,407.2 "/>
<polygon class="st8" points="42.1,327.2 54.7,312.9 0,353.8 0,367.9 0,375.2 21.1,362.5 25.4,352.3 38.2,352.1 33,346.3 48.2,341.5 
	38.4,335.8 38.9,330.9 47.5,330.4 "/>
<polygon class="st12" points="54.7,312.9 54.7,321.5 56,344.8 64.1,340.8 62.1,355.7 67.1,357.8 73.9,363.5 96.9,364.3 119.9,365 
	"/>
<polyline class="st7" points="295.3,535.3 177,533.2 0,601.4 0,587.8 240.9,497.5 260,499.5 194.8,526.7 321.1,528.6 "/>
<polygon class="st6" points="0,467.5 172,468.8 168.1,474.2 62,474.2 0,474.2 "/>
<polygon class="st6" points="0,458.8 176,460.5 173.1,465.5 0,465.5 "/>
<polygon class="st9" points="381.1,421.6 0,561.2 0,550 373.8,422.5 "/>
<polygon class="st9" points="1440,576.4 1253.1,428.7 1259,425.7 1440,557 "/>
<polygon class="st8" points="1304.6,326.4 1302.1,345.5 1287.6,351.2 1281.2,364.7 1268.8,369 1274,377.2 1259,377.2 1242.3,364.7 
	"/>
<polygon class="st12" points="1374.1,351 1304.6,326.4 1313.6,338.8 1323.4,341.6 1317.8,346 1326.4,350.6 1328.5,356.1 
	1339.9,354.1 1350.9,364.7 1360.2,362.2 "/>
<polygon class="st8" points="1410,373.7 1390.2,398.7 1396,409.7 1405.2,419.5 1377.6,414.9 1370.5,406.5 "/>
<polygon class="st12" points="1428,381.5 1440,398.7 1440,415.5 1427.5,401.8 1422,403.3 1423,389.7 1410,373.7 "/>
<polygon class="st11" points="1370.5,406.5 1377.6,414.9 1303.8,411.3 1253.1,395.1 1287.6,400.3 1319,394.6 1312,373.7 
	1331.7,380.9 "/>
<polygon class="st2" points="1124.2,306.5 1123.8,315.8 1113,315.8 1108.7,322.8 1123,325 1104.2,327.5 1100.7,332.7 1091,342 
	1106.9,335.6 1115.5,346.2 1126.6,334.5 1133.4,339.5 1135.3,326.4 1143.1,336.3 1144.8,331.3 1153.1,337.9 1152.7,329.3 
	1180.3,332.2 1204.4,341 1182.3,327.8 "/>
<path class="st13" d="M310.3,486.3v2.8l0,0V486.3c-4,0-7.3,3.3-7.3,7.3s7.3,16,7.3,16l0,0c0,0,7.3-12,7.3-16
	C317.6,489.5,314.3,486.3,310.3,486.3z M310.3,496.6c-1.7,0-3.1-1.4-3.1-3.1s1.4-3.1,3.1-3.1c1.7,0,3.1,1.4,3.1,3.1l0,0
	C313.4,495.3,312,496.6,310.3,496.6z M314.7,494v-0.3C314.8,493.9,314.8,494,314.7,494z"/>
<path class="st13" d="M911.5,440.5v2.8l0,0V440.5c-4,0-7.3,3.3-7.3,7.3s7.3,16,7.3,16l0,0c0,0,7.3-12,7.3-16
	S915.5,440.5,911.5,440.5z M911.5,450.9c-1.7,0-3.1-1.4-3.1-3.1s1.4-3.1,3.1-3.1c1.7,0,3.1,1.4,3.1,3.1l0,0
	C914.5,449.5,913.2,450.9,911.5,450.9z M915.9,448.3V448C916,448.1,916,448.3,915.9,448.3z"/>
<path class="st13" d="M847.1,502.5v3l0,0V502.5c-4.3,0-7.8,3.5-7.8,7.8c0,4.3,7.8,17,7.8,17l0,0c0,0,7.8-12.8,7.8-17
	C854.9,505.9,851.4,502.5,847.1,502.5z M847.1,513.5c-1.9,0-3.3-1.5-3.3-3.3c0-1.9,1.5-3.3,3.3-3.3c1.9,0,3.3,1.5,3.3,3.3
	C850.4,512,849,513.5,847.1,513.5z M851.8,510.8v-0.3C851.9,510.6,851.9,510.6,851.8,510.8L851.8,510.8z"/>
<path class="st13" d="M1052.7,480.8v2.5l0,0V480.8c-3.6,0-6.5,2.9-6.5,6.5c0,3.5,6.5,14.2,6.5,14.2l0,0c0,0,6.5-10.6,6.5-14.2
	C1059.2,483.7,1056.3,480.8,1052.7,480.8z M1052.7,490c-1.6,0-2.8-1.2-2.8-2.8s1.2-2.8,2.8-2.8c1.6,0,2.8,1.2,2.8,2.8
	S1054.2,490,1052.7,490z M1056.6,487.7v-0.3C1056.7,487.6,1056.7,487.6,1056.6,487.7L1056.6,487.7z"/>
<path class="st13" d="M644,468v3l0,0V468c-4.3,0-7.8,3.5-7.8,7.8c0,4.3,7.8,17,7.8,17l0,0c0,0,7.8-12.8,7.8-17
	C651.8,471.4,648.3,468,644,468z M644,479c-1.9,0-3.3-1.5-3.3-3.3c0-1.9,1.5-3.3,3.3-3.3s3.3,1.5,3.3,3.3
	C647.3,477.5,645.9,479,644,479z M648.7,476.3v-0.3C648.8,476.1,648.8,476.1,648.7,476.3L648.7,476.3z"/>
<path class="st13" d="M490.6,397.6v3l0,0V397.6c-4.3,0-7.8,3.5-7.8,7.8c0,4.3,7.8,17,7.8,17l0,0c0,0,7.8-12.8,7.8-17
	C498.4,401.1,494.9,397.6,490.6,397.6z M490.6,408.6c-1.9,0-3.3-1.5-3.3-3.3s1.5-3.3,3.3-3.3s3.3,1.5,3.3,3.3
	S492.5,408.6,490.6,408.6z M495.3,405.9v-0.3C495.4,405.7,495.4,405.8,495.3,405.9L495.3,405.9z"/>
<path class="st13" d="M374.7,326.2v1.6l0,0V326.2c-2.2,0-4.1,1.8-4.1,4v0.1c0,2.3,4.1,8.9,4.1,8.9l0,0c0,0,4.1-6.7,4.1-8.9
	C378.8,328,377,326.2,374.7,326.2z M374.7,331.9c-0.9,0-1.7-0.8-1.7-1.7s0.8-1.7,1.7-1.7c0.9,0,1.7,0.8,1.7,1.7
	C376.4,331.1,375.6,331.9,374.7,331.9L374.7,331.9z M377.1,330.5v-0.2C377.2,330.4,377.2,330.5,377.1,330.5L377.1,330.5z"/>
<path class="st13" d="M1261,368.8v1.6l0,0V368.8c-2.2,0-4.1,1.8-4.1,4v0.1c0,2.3,4.1,8.9,4.1,8.9l0,0c0,0,4.1-6.7,4.1-8.9
	S1263.2,368.8,1261,368.8z M1261,374.6c-0.9,0-1.7-0.8-1.7-1.7s0.8-1.7,1.7-1.7c0.9,0,1.7,0.8,1.7,1.7l0,0
	C1262.7,373.8,1261.9,374.6,1261,374.6L1261,374.6z M1263.4,373.2V373C1263.5,373.1,1263.5,373.1,1263.4,373.2L1263.4,373.2z"/>
<path class="st13" d="M963.4,322.8v1.6l0,0V322.8c-2.2,0-4.1,1.8-4.1,4v0.1c0,2.3,4.1,8.9,4.1,8.9l0,0c0,0,4.1-6.7,4.1-8.9
	S965.6,322.8,963.4,322.8z M963.4,328.6c-0.9,0-1.7-0.8-1.7-1.7s0.8-1.7,1.7-1.7c0.9,0,1.7,0.8,1.7,1.7l0,0
	C965.1,327.8,964.3,328.6,963.4,328.6L963.4,328.6z M965.8,327.2V327C965.9,327.1,965.9,327.1,965.8,327.2L965.8,327.2z"/>
<polygon class="st9" points="227.8,477.8 315.3,477.8 323.3,477.8 469.9,477.8 454.8,482.9 213.8,482.9 "/>
<polygon class="st9" points="315.3,477.8 298.7,477.7 364.7,446.3 318.1,444.7 329.4,440.5 386.9,442 "/>
</svg>
